<svg width="33" height="33" viewBox="0 0 33 33" fill="none" xmlns="http://www.w3.org/2000/svg">
<path d="M16.499 0C7.38621 0 0 7.48754 0 16.7253C0 18.5756 0.296932 20.3565 0.844372 22.0204C3.7299 20.2572 6.30728 19.0212 8.57379 18.2301C6.0046 18.6392 3.80183 19.9537 0.680312 18.5215C2.94768 16.4989 6.98127 13.7251 10.6354 13.3014C12.5455 11.7268 15.5301 10.0989 17.0782 10.5857C19.2694 8.62804 21.9634 6.1352 24.8482 4.33901C25.6147 5.51593 26.0787 6.95714 25.751 8.55498C19.9755 10.0269 21.3177 19.404 26.7188 13.4678C27.175 14.4195 27.395 15.4103 27.3724 16.4863C25.0243 18.9507 22.5598 21.0776 20.047 22.89C20.0805 24.6376 19.6442 26.7447 18.6816 29.0684C18.2767 30.046 18.1549 31.7205 20.3254 33C27.5935 31.2508 33 24.6281 33 16.7253C33 7.48754 25.6116 7.28073e-05 16.4988 7.28073e-05L16.499 0ZM16.737 11.9743C15.4553 12.136 14.3803 12.6333 13.4425 13.3561C14.3108 13.3534 15.2831 13.566 16.1374 13.8045C16.5835 13.3166 16.8729 12.4554 16.737 11.9742L16.737 11.9743Z" fill="#EC1204"/>
</svg>
