<svg width="29" height="26" viewBox="0 0 29 26" fill="none" xmlns="http://www.w3.org/2000/svg">
<path d="M25.1395 0C25.9722 0 26.7707 0.304364 27.3595 0.846136C27.9483 1.38791 28.2791 2.12271 28.2791 2.88889V23.1111C28.2791 23.8773 27.9483 24.6121 27.3595 25.1539C26.7707 25.6956 25.9722 26 25.1395 26H3.16279C2.33013 26 1.53158 25.6956 0.942803 25.1539C0.354026 24.6121 0.0232544 23.8773 0.0232544 23.1111V2.88889C0.0232544 2.12271 0.354026 1.38791 0.942803 0.846136C1.53158 0.304364 2.33013 0 3.16279 0H25.1395ZM24.3547 22.3889V14.7333C24.3547 13.4845 23.8155 12.2867 22.8558 11.4036C21.8961 10.5206 20.5944 10.0244 19.2372 10.0244C17.9029 10.0244 16.3488 10.7756 15.5953 11.9022V10.2989H11.2157V22.3889H15.5953V15.2678C15.5953 14.1556 16.5686 13.2456 17.7773 13.2456C18.3602 13.2456 18.9192 13.4586 19.3313 13.8379C19.7435 14.2171 19.975 14.7315 19.975 15.2678V22.3889H24.3547ZM6.11395 8.03111C6.81338 8.03111 7.48417 7.77545 7.97874 7.32036C8.47331 6.86527 8.75116 6.24804 8.75116 5.60444C8.75116 4.26111 7.57384 3.16333 6.11395 3.16333C5.41036 3.16333 4.73558 3.42052 4.23806 3.87832C3.74055 4.33612 3.46105 4.95702 3.46105 5.60444C3.46105 6.94778 4.65407 8.03111 6.11395 8.03111ZM8.29593 22.3889V10.2989H3.94767V22.3889H8.29593Z" fill="#515151"/>
</svg>
