<svg width="22" height="17" viewBox="0 0 22 17" fill="none" xmlns="http://www.w3.org/2000/svg">
<path d="M21.9767 2C21.1679 2.35 20.2959 2.58 19.3925 2.69C20.3169 2.16 21.0313 1.32 21.3674 0.31C20.4955 0.81 19.529 1.16 18.5101 1.36C17.6801 0.5 16.5141 0 15.1904 0C12.7217 0 10.7047 1.92 10.7047 4.29C10.7047 4.63 10.7468 4.96 10.8203 5.27C7.08046 5.09 3.75033 3.38 1.53375 0.79C1.14506 1.42 0.924452 2.16 0.924452 2.94C0.924452 4.43 1.71234 5.75 2.93093 6.5C2.18507 6.5 1.49173 6.3 0.882432 6V6.03C0.882432 8.11 2.43719 9.85 4.4962 10.24C3.83514 10.4122 3.14114 10.4362 2.46871 10.31C2.75403 11.1625 3.31283 11.9084 4.06656 12.4429C4.82028 12.9775 5.73102 13.2737 6.67076 13.29C5.07779 14.4904 3.10321 15.1393 1.07152 15.13C0.714349 15.13 0.357175 15.11 0 15.07C1.99598 16.29 4.37014 17 6.91238 17C15.1904 17 19.7392 10.46 19.7392 4.79C19.7392 4.6 19.7392 4.42 19.7286 4.23C20.6111 3.63 21.3674 2.87 21.9767 2Z" fill="#515151"/>
</svg>
