<svg width="26" height="23" viewBox="0 0 26 23" fill="none" xmlns="http://www.w3.org/2000/svg">
<path d="M22.8837 0H3.34883C1.81395 0 0.558136 1.15 0.558136 2.55556V20.4444C0.558136 21.8513 1.81395 23 3.34883 23H13.1163V14.0556H10.3256V10.8931H13.1163V8.27361C13.1163 5.5085 14.8074 3.56628 18.3712 3.56628L20.887 3.56883V6.89744H19.2167C17.8298 6.89744 17.3023 7.85067 17.3023 8.73489V10.8943H20.8856L20.093 14.0556H17.3023V23H22.8837C24.4186 23 25.6744 21.8513 25.6744 20.4444V2.55556C25.6744 1.15 24.4186 0 22.8837 0Z" fill="#515151"/>
</svg>
